<svg xmlns="http://www.w3.org/2000/svg" viewBox="26 58 782 384" width="782" height="384"><title>teji mandi logo_final</title><defs><linearGradient id="g1" x2="1" gradientUnits="userSpaceOnUse" gradientTransform="matrix(203.771,311.004,-333.197,218.311,335.079,-47.583)"><stop offset="0" stop-color="#fccf0e"></stop><stop offset="1" stop-color="#f9ac1c"></stop></linearGradient></defs><style>		.s0 { fill: #2a2e8c } 		.s1 { fill: #d62129 } 		.s2 { fill: #3ab549 } 		.s3 { fill: #323232 } 		.s4 { fill: url(#g1) } 	</style><g id="for-white-bg"><g id="tejimandi"><g id="i"><path id="&lt;Path&gt;" class="s0" d="m787.5 212.5c5.1 0.1 8.9 4.1 9.4 9.1v70.1c-0.9 12.9-18.2 12.9-19.2 0.9v-70.4c0.2-5.5 4.2-9.7 9.8-9.7z"></path><path id="&lt;Path&gt;" class="s0" d="m785.6 181.1c15.7-2 16.5 21.4 1.9 21.6-13.5 0.2-14.6-20-1.9-21.6z"></path></g><path id="d" class="s0" d="m740.7 220.1v-31.3c0-2.5 2.9-5.8 5.1-6.8 6.5-2.9 13.1 0.6 13.9 7.7v70c-3 40.1-53.2 56.8-79.3 25.2-9.8-11.9-11.9-28.2-7.2-42.8 3.9-12.3 16.7-24.4 29.1-27.8 12.8-3.6 27.4-1.9 38.4 5.8zm-27.4 11.5c-20.2 1.4-30.9 24.8-18.8 41 11.3 15 34.6 13.1 43.3-3.4 9.4-17.8-4.5-38.9-24.5-37.6z"></path><path id="n" class="s0" d="m616.9 212.7c19.8-1.6 39.5 13.4 40.7 33.6 1 15.2-0.7 31.4 0 46.7-1.5 10.8-16.4 11.3-18.8 0.8l-0.1-45.2c-2.3-22.6-35.1-22.7-36.8 0.4-1.1 14.2 0.7 29.7 0 44-1.6 11.5-17.6 11.1-19-0.2 0.8-15.3-1-31.5 0-46.7 1.2-17.3 17-32.1 34-33.4z"></path><path id="a" class="s0" d="m548.8 292.2c-2.1 1.6-4 3.4-6.2 4.7-15.9 9.5-40.5 3.7-52.2-10-18.2-21-15.1-51.6 8.4-67.1 22.9-15.2 54.3-5.7 65.2 19.3 7 16 2.1 37.4 3.5 54.6-2.3 11.2-18.5 9.8-18.7-1.5zm-27.8-60.8c-18.1 1.5-29 21.2-20.6 37.4 9.1 17.6 34.1 18.5 44.7 1.8 11.3-18-3.1-40.9-24.1-39.2z"></path><g id="m"><path id="&lt;Path&gt;" class="s1" d="m447.7 277.1v-28.3c-1.4-23.1-35-22.6-36.4 0-0.9 14.5 0.7 29.9 0 44.5-1.5 10.6-16.7 10.9-18.9 0.4-0.7-14.7 0.9-30.3 0-44.9-0.5-6.9-5.3-14-12-16.2-11.5-3.9-23.6 3.8-24.4 16-0.9 14.4 0.7 29.9 0 44.4-1.5 11.3-17.3 11.2-18.9 0 0.8-15.4-1.1-31.8 0-47.1 1.1-17.2 17.1-32.3 34.2-33.3 11-0.6 23.8 2.5 30.3 12 0.4 0.2 1.6-1.7 1.9-2.1 7.5-8.1 18.4-10.6 29.2-9.9 17.2 1.1 32.4 15.8 34 33.1l-0.1 31.4z"></path><path id="&lt;Path&gt;" class="s1" d="m478.4 282.1l-20.4 35.9-20.9-35.9z"></path></g><g id="i"><path id="&lt;Path&gt;" class="s0" d="m307.9 212.7c6-0.8 9.8 2.9 10.9 8.6v71.5c-1.3 11.8-18.2 11.6-19.2-0.2-0.7-8.3 0.3-17.8-0.2-26.2 0.5-15 0-30.1 0.2-45.1 0.6-4.2 4-8.1 8.3-8.6z"></path><path id="&lt;Path&gt;" class="s0" d="m307.4 181.3c13.5-1.7 17.3 16.8 5.4 20.9-15.2 5.2-20-19-5.4-20.9z"></path></g><g id="j"><path id="&lt;Path&gt;" class="s0" d="m269.3 212.7c5.9-0.8 10 3 10.9 8.6v79.2c-0.9 20.4-19.9 35.9-40.2 32.7-8.1-1.3-10.8-11.8-4.4-16.8 3.9-3.1 8.1-1.6 12.6-2.3 6.7-1.2 11.5-5.9 12.7-12.6l0.1-80.2c0.4-4.4 3.9-8 8.3-8.6z"></path><path id="&lt;Path&gt;" class="s0" d="m268.8 181.1c11.9-1.5 17.3 13.6 7.6 19.7-8 5.2-18.4-2-16.5-11.2 0.9-4.2 4.7-8 8.9-8.5z"></path></g><path id="e" class="s0" d="m181.5 275.1c-0.2 0.3 1.6 2 2 2.3 11.4 10 30.6 5.5 38.2-7.2 2.5-4.3 3.2-10.1 9.3-11 7.9-1.3 13 5.8 10.5 13.2-7.4 22.3-33.6 33.9-55.6 26.8-26.9-8.6-40.2-43.3-23.3-66.8 18.3-25.4 54.1-27.5 73-1.7 4.9 6.7 9.5 15.2-0.3 20.2zm35.7-36.7c-5.9-7.2-15.7-7.8-24.2-5.8-2.6 0.6-4.5 1.4-6.8 2.8-7.7 5-11.8 13-11.9 22.1z"></path><g id="t"><path id="&lt;Path&gt;" class="s2" d="m125.8 202.7v9.9h13.2c0.3 0 2.4 0.8 2.8 1 6.3 3.2 6.6 13.1 0.6 16.7-0.5 0.3-2.7 1.3-3.2 1.3h-13.4v46.3c0 0.4 1 2.5 1.4 2.9 2.2 2.9 7.8 1.5 11.1 1.7 11.1 1 11.2 17.9 0.2 19-16.2 1.6-29.8-5.2-31.7-22.4v-76.4z"></path><path id="&lt;Path&gt;" class="s2" d="m96.7 198l20.6-36.1 21.1 36.1z"></path></g></g><g id="by-motilal-oswal"><path id="&lt;Compound Path&gt;" class="s3" d="m410.3 356.3q2.6-1.6 6.1-1.6 3.6 0 6.6 1.7 2.9 1.8 4.6 4.9 1.6 3.2 1.6 7.3 0 4.2-1.6 7.4-1.7 3.2-4.7 5-2.9 1.8-6.5 1.8-3.6 0-6.2-1.6-2.7-1.5-4-3.9v5h-4.5v-36.7h4.5v14.6q1.4-2.4 4.1-3.9zm13.1 7q-1.2-2.3-3.3-3.5-2.2-1.2-4.7-1.2-2.5 0-4.6 1.2-2.1 1.3-3.3 3.6-1.3 2.3-1.3 5.3 0 3.1 1.3 5.4 1.2 2.3 3.3 3.5 2.1 1.2 4.6 1.2 2.5 0 4.7-1.2 2.1-1.2 3.3-3.5 1.2-2.3 1.2-5.5 0-3-1.2-5.3z"></path><path id="&lt;Compound Path&gt;" class="s3" d="m458.6 355.2l-16.4 39.9h-4.6l5.3-13.1-10.9-26.8h5l8.5 22 8.4-22z"></path><path id="&lt;Compound Path&gt;" class="s3" d="m514.6 356q2.5 1.3 3.9 3.9 1.5 2.6 1.5 6.4v16h-4.5v-15.3q0-4.1-2-6.3-2-2.1-5.4-2.1-3.5 0-5.6 2.2-2.1 2.3-2.1 6.5v15h-4.5v-15.3q0-4.1-2-6.3-2-2.1-5.4-2.1-3.5 0-5.6 2.2-2.1 2.3-2.1 6.5v15h-4.5v-27.1h4.5v3.9q1.4-2.2 3.6-3.3 2.3-1.1 5-1.1 3.4 0 6 1.5 2.7 1.5 4 4.5 1.1-2.9 3.7-4.4 2.7-1.6 5.9-1.6 3.1 0 5.6 1.3z"></path><path id="&lt;Compound Path&gt;" class="s3" d="m532.3 381q-3.1-1.7-4.9-4.9-1.7-3.2-1.7-7.4 0-4.2 1.8-7.4 1.8-3.2 4.9-4.9 3.1-1.7 7-1.7 3.9 0 7 1.7 3.1 1.7 4.9 4.9 1.8 3.2 1.8 7.4 0 4.2-1.8 7.4-1.9 3.2-5.1 4.9-3.1 1.8-7 1.8-3.8 0-6.9-1.8zm11.5-3.3q2.1-1.2 3.4-3.5 1.3-2.2 1.3-5.5 0-3.3-1.3-5.6-1.3-2.2-3.3-3.4-2.1-1.1-4.6-1.1-2.4 0-4.5 1.1-2 1.2-3.3 3.4-1.2 2.3-1.2 5.6 0 3.3 1.2 5.6 1.2 2.3 3.2 3.4 2.1 1.1 4.5 1.1 2.4 0 4.6-1.1z"></path><path id="&lt;Compound Path&gt;" class="s3" d="m564.6 358.9v16q0 2 0.8 2.8 0.9 0.8 2.9 0.8h3.4v3.8h-4.1q-3.8 0-5.7-1.7-1.8-1.8-1.8-5.7v-16h-3.6v-3.7h3.6v-6.9h4.5v6.9h7.1v3.7z"></path><path id="&lt;Compound Path&gt;" class="s3" d="m577.3 349.9q-0.9-0.9-0.9-2.2 0-1.3 0.9-2.2 0.8-0.9 2.1-0.9 1.3 0 2.1 0.9 0.9 0.9 0.9 2.2 0 1.3-0.9 2.2-0.8 0.9-2.1 0.9-1.3 0-2.1-0.9zm4.3 5.3v27.1h-4.5v-27.1z"></path><path id="&lt;Compound Path&gt;" class="s3" d="m593.8 345.6v36.7h-4.5v-36.7z"></path><path id="&lt;Compound Path&gt;" class="s3" d="m601.5 361.3q1.7-3.1 4.6-4.9 3-1.7 6.6-1.7 3.5 0 6.2 1.6 2.6 1.5 3.9 3.8v-4.9h4.5v27.1h-4.5v-5q-1.4 2.3-4 3.9-2.7 1.6-6.2 1.6-3.6 0-6.5-1.8-2.9-1.8-4.6-5-1.7-3.2-1.7-7.4 0-4.1 1.7-7.3zm20.1 2q-1.3-2.2-3.4-3.5-2.1-1.2-4.6-1.2-2.6 0-4.6 1.2-2.1 1.2-3.4 3.5-1.2 2.3-1.2 5.3 0 3.2 1.2 5.5 1.3 2.3 3.4 3.5 2 1.2 4.6 1.2 2.5 0 4.6-1.2 2.1-1.2 3.4-3.5 1.2-2.3 1.2-5.4 0-3.1-1.2-5.4z"></path><path id="&lt;Compound Path&gt;" class="s3" d="m639.5 345.6v36.7h-4.5v-36.7z"></path><path id="&lt;Compound Path&gt;" class="s3" d="m665.3 381q-3.1-1.7-4.8-4.9-1.8-3.2-1.8-7.4 0-4.2 1.8-7.4 1.8-3.2 5-4.9 3.1-1.7 6.9-1.7 3.9 0 7 1.7 3.1 1.7 5 4.9 1.8 3.2 1.8 7.4 0 4.2-1.9 7.4-1.9 3.2-5 4.9-3.2 1.8-7.1 1.8-3.8 0-6.9-1.8zm11.5-3.3q2.1-1.2 3.4-3.5 1.4-2.2 1.4-5.5 0-3.3-1.3-5.6-1.3-2.2-3.4-3.4-2.1-1.1-4.5-1.1-2.5 0-4.5 1.1-2.1 1.2-3.3 3.4-1.3 2.3-1.3 5.6 0 3.3 1.2 5.6 1.2 2.3 3.3 3.4 2 1.1 4.4 1.1 2.5 0 4.6-1.1z"></path><path id="&lt;Compound Path&gt;" class="s3" d="m696.1 381.7q-2.5-1.1-3.9-3-1.4-1.9-1.6-4.4h4.7q0.2 2.1 1.9 3.4 1.7 1.2 4.5 1.2 2.5 0 4-1.1 1.5-1.1 1.5-2.9 0-1.8-1.6-2.6-1.5-0.9-4.9-1.7-3-0.8-4.9-1.6-1.9-0.9-3.3-2.5-1.3-1.6-1.3-4.2 0-2.1 1.2-3.8 1.2-1.8 3.5-2.8 2.3-1 5.2-1 4.5 0 7.3 2.3 2.8 2.3 3 6.2h-4.5q-0.2-2.1-1.7-3.4-1.6-1.3-4.2-1.3-2.4 0-3.9 1.1-1.4 1-1.4 2.7 0 1.3 0.8 2.2 0.9 0.9 2.2 1.4 1.3 0.5 3.7 1.2 2.9 0.7 4.7 1.5 1.9 0.8 3.2 2.3 1.3 1.6 1.3 4 0 2.3-1.2 4-1.2 1.8-3.5 2.8-2.3 1.1-5.2 1.1-3.1 0-5.6-1.1z"></path><path id="&lt;Compound Path&gt;" class="s3" d="m754.1 355.2l-8.4 27.1h-4.7l-6.5-21.5-6.6 21.5h-4.6l-8.5-27.1h4.6l6.2 22.8 6.7-22.8h4.7l6.5 22.8 6.2-22.8z"></path><path id="&lt;Compound Path&gt;" class="s3" d="m758.6 361.3q1.7-3.1 4.6-4.9 3-1.7 6.6-1.7 3.6 0 6.2 1.6 2.6 1.5 3.9 3.8v-4.9h4.6v27.1h-4.6v-5q-1.3 2.3-4 3.9-2.6 1.6-6.1 1.6-3.7 0-6.6-1.8-2.9-1.8-4.6-5-1.7-3.2-1.7-7.4 0-4.1 1.7-7.3zm20.1 2q-1.3-2.2-3.4-3.5-2.1-1.2-4.6-1.2-2.5 0-4.6 1.2-2.1 1.2-3.3 3.5-1.3 2.3-1.3 5.3 0 3.2 1.3 5.5 1.2 2.3 3.3 3.5 2.1 1.2 4.6 1.2 2.5 0 4.6-1.2 2.1-1.2 3.4-3.5 1.2-2.3 1.2-5.4 0-3.1-1.2-5.4z"></path><path id="&lt;Compound Path&gt;" class="s3" d="m796.6 345.6v36.7h-4.5v-36.7z"></path></g><path id="Arc" fill-rule="evenodd" class="s4" d="m35.9 249.7c0 102.4 83.3 185.7 185.7 185.7 65.3 0 126.6-34.9 159.9-91.2 2.1-3.6 0.9-8.2-2.6-10.3-3.6-2.2-8.3-1-10.4 2.6-30.6 51.7-86.9 83.8-146.9 83.8-94.1 0-170.6-76.5-170.6-170.6 0-94.1 76.5-170.6 170.6-170.6 60 0 116.3 32.1 146.9 83.8 2.1 3.6 6.8 4.8 10.4 2.7 3.5-2.1 4.7-6.8 2.6-10.4-33.3-56.2-94.6-91.2-159.9-91.2-102.4 0-185.7 83.3-185.7 185.7z"></path></g></svg>